<svg xmlns="http://www.w3.org/2000/svg" width="880.214" height="198.029" viewBox="0 0 880.214 198.029"><g transform="translate(1368.978 2172.792)"><path d="M75.936-28.928c-2.26,2.26-6.78,3.842-11.3,3.842-6.1,0-11.074-5.424-11.074-13.108v-51.98H78.874v-26.668H53.562v-32.092H21.922v32.092H5.876v26.668H21.922V-33c0,21.018,14.464,35.708,35.03,35.708A42.581,42.581,0,0,0,83.846-7.458ZM141.7-26.442c-13.786,0-23.956-8.588-27.8-21.244h84.3c0-44.07-21.47-71.868-58.082-71.868C105.994-119.554,80-94.016,80-58.76c0,35.934,27.12,61.472,61.924,61.472,17.176,0,37.29-7.232,47.686-18.08L168.6-36.838C162.268-30.736,150.968-26.442,141.7-26.442ZM141.476-90.4c13.334,0,21.922,7.458,25.086,18.984H114.356A28.237,28.237,0,0,1,141.476-90.4ZM270.3-119.554c-15.142,0-28.25,6.78-35.256,17.4v-14.69h-33V0h33V-69.834l.226.678c0-12.656,10.622-22.6,24.408-22.6,13.108,0,22.148,9.944,22.148,24.408V0h31.866V-74.354C313.688-100.8,295.608-119.554,270.3-119.554ZM385.1-28.928c-2.26,2.26-6.78,3.842-11.3,3.842-6.1,0-11.074-5.424-11.074-13.108v-51.98h25.312v-26.668H362.73v-32.092H331.09v32.092H315.044v26.668H331.09V-33c0,21.018,14.464,35.708,35.03,35.708a42.581,42.581,0,0,0,26.894-10.17Zm88.14-87.914v69.834l-.226-.678c0,12.656-10.622,22.6-24.408,22.6-13.108,0-22.148-9.944-22.148-24.408v-67.348H394.6v74.354c0,26.442,18.08,45.2,43.392,45.2,15.142,0,28.25-6.78,35.256-17.4V0h33V-116.842Z" transform="translate(-1191 -2008)" fill="#4a4a4a"/><g transform="translate(-1337.285 -2172.792) rotate(47)"><path d="M0,0H36.169V133.373A36.169,36.169,0,0,1,0,97.2Z" transform="translate(133.373 0) rotate(90)" fill="#4a4a4a"/><g transform="translate(137.457 36.169) rotate(-90)"><path d="M18.084,0A17.956,17.956,0,1,1,0,17.955,18.02,18.02,0,0,1,18.084,0Z" transform="translate(0 63.675)" fill="#ff8080"/><path d="M18.084,0A18.084,18.084,0,1,1,0,18.084,18.084,18.084,0,0,1,18.084,0Z" transform="translate(0 33.541)" fill="#ff6060"/><ellipse cx="18.084" cy="17.955" rx="18.084" ry="17.955" transform="translate(0 0)" fill="#ff4a4a"/></g></g><path d="M0,0A36.169,36.169,0,0,1,36.169,36.169V238.112A36.169,36.169,0,0,1,0,201.943Z" transform="translate(-1194.834 -2168.084) rotate(47)" fill="#ff4a4a"/><path d="M47.46-95.146v-21.7h-33V0h33V-55.822c0-21.922,15.594-35.934,40-35.934v-27.8C69.608-119.554,55.144-110.288,47.46-95.146Zm96.276,68.7c-13.786,0-23.956-8.588-27.8-21.244h84.3c0-44.07-21.47-71.868-58.082-71.868-34.126,0-60.116,25.538-60.116,60.794,0,35.934,27.12,61.472,61.924,61.472,17.176,0,37.29-7.232,47.686-18.08L170.63-36.838C164.3-30.736,153-26.442,143.736-26.442ZM143.51-90.4c13.334,0,21.922,7.458,25.086,18.984H116.39A28.237,28.237,0,0,1,143.51-90.4Z" transform="translate(-689 -2008)" fill="#ff4a4a"/></g></svg>