<svg xmlns="http://www.w3.org/2000/svg" width="653.985" height="651.412" viewBox="0 0 653.985 651.412"><g transform="translate(-917.169 -2766.702)"><g transform="translate(1021.422 2766.702) rotate(47)"><path d="M0,0H118.977V438.727A118.977,118.977,0,0,1,0,319.751Z" transform="translate(438.727 0) rotate(90)" fill="#4a4a4a"/><g transform="translate(452.161 118.977) rotate(-90)"><path d="M59.488,0c32.854,0,59.488,26.444,59.488,59.063s-26.634,59.063-59.488,59.063S0,91.683,0,59.063,26.634,0,59.488,0Z" transform="translate(0 209.459)" fill="#ff8080"/><path d="M59.488,0A59.488,59.488,0,1,1,0,59.488,59.488,59.488,0,0,1,59.488,0Z" transform="translate(0 110.334)" fill="#ff6060"/><ellipse cx="59.488" cy="59.063" rx="59.488" ry="59.063" transform="translate(0 0)" fill="#ff4a4a"/></g></g><path d="M0,0A118.977,118.977,0,0,1,118.977,118.977V783.264A118.977,118.977,0,0,1,0,664.288Z" transform="translate(1490.012 2782.189) rotate(47)" fill="#ff4a4a"/></g></svg>